<svg xmlns="http://www.w3.org/2000/svg" xmlns:xlink="http://www.w3.org/1999/xlink" width="1400" zoomAndPan="magnify" viewBox="0 0 1050 299.999988" height="400" preserveAspectRatio="xMidYMid meet" version="1.0"><defs><g/><clipPath id="07980b6b3d"><rect x="0" width="620" y="0" height="134"/></clipPath><clipPath id="1e98107b41"><rect x="0" width="142" y="0" height="298"/></clipPath></defs><g transform="matrix(1, 0, 0, 1, 289, 101)"><g clip-path="url(#07980b6b3d)"><g fill="#ffffff" fill-opacity="1"><g transform="translate(0.889353, 100.236316)"><g><path d="M 7.515625 0 L 7.515625 -81.71875 L 26.203125 -81.71875 C 39.035156 -81.71875 48.691406 -79.765625 55.171875 -75.859375 C 60.847656 -72.460938 65.234375 -67.6875 68.328125 -61.53125 C 71.429688 -55.375 72.984375 -48.425781 72.984375 -40.6875 C 72.984375 -32.4375 71.210938 -25.117188 67.671875 -18.734375 C 64.128906 -12.359375 59.226562 -7.625 52.96875 -4.53125 C 46.925781 -1.507812 38.113281 0 26.53125 0 Z M 22.671875 -14.484375 L 25.984375 -14.484375 C 34.898438 -14.484375 41.535156 -15.703125 45.890625 -18.140625 C 49.503906 -20.128906 52.378906 -23.148438 54.515625 -27.203125 C 56.648438 -31.253906 57.71875 -35.75 57.71875 -40.6875 C 57.71875 -45.925781 56.613281 -50.609375 54.40625 -54.734375 C 52.195312 -58.859375 49.140625 -61.921875 45.234375 -63.921875 C 40.878906 -66.128906 34.351562 -67.234375 25.65625 -67.234375 L 22.671875 -67.234375 Z M 22.671875 -14.484375 "/></g></g></g><g fill="#ffffff" fill-opacity="1"><g transform="translate(78.29107, 100.236316)"><g><path d="M 68 -61.265625 L 68 0 L 54.515625 0 L 54.515625 -7.96875 C 51.566406 -4.644531 48.503906 -2.242188 45.328125 -0.765625 C 42.160156 0.703125 38.441406 1.4375 34.171875 1.4375 C 25.242188 1.4375 17.867188 -1.566406 12.046875 -7.578125 C 6.222656 -13.585938 3.3125 -21.195312 3.3125 -30.40625 C 3.3125 -39.769531 6.242188 -47.492188 12.109375 -53.578125 C 17.972656 -59.660156 25.4375 -62.703125 34.5 -62.703125 C 42.976562 -62.703125 49.648438 -59.492188 54.515625 -53.078125 L 54.515625 -61.265625 Z M 48.984375 -43.890625 C 45.597656 -47.429688 41.285156 -49.203125 36.046875 -49.203125 C 30.816406 -49.203125 26.523438 -47.414062 23.171875 -43.84375 C 19.816406 -40.269531 18.140625 -35.679688 18.140625 -30.078125 C 18.140625 -24.691406 19.816406 -20.335938 23.171875 -17.015625 C 26.523438 -13.703125 30.890625 -12.046875 36.265625 -12.046875 C 42.085938 -12.046875 46.550781 -13.890625 49.65625 -17.578125 C 52.601562 -21.046875 54.078125 -25.25 54.078125 -30.1875 C 54.078125 -35.789062 52.378906 -40.359375 48.984375 -43.890625 Z M 48.984375 -43.890625 "/></g></g></g><g fill="#ffffff" fill-opacity="1"><g transform="translate(151.269828, 100.236316)"><g><path d="M 11.609375 20.453125 L 23.109375 -5.75 L 0.65625 -61.265625 L 17.46875 -61.265625 L 31.078125 -21.5625 L 45.890625 -61.265625 L 62.8125 -61.265625 L 27.421875 20.453125 Z M 11.609375 20.453125 "/></g></g></g><g fill="#ffffff" fill-opacity="1"><g transform="translate(215.40267, 100.236316)"><g/></g></g><g fill="#ffffff" fill-opacity="1"><g transform="translate(265.271501, 100.236316)"><g><path d="M 0.78125 0 L 34.828125 -81.71875 L 46.78125 -81.71875 L 81.046875 0 L 64.359375 0 L 55.625 -21.125 L 26.53125 -21.125 L 17.46875 0 Z M 32.0625 -35.609375 L 49.546875 -35.609375 L 40.796875 -60.375 Z M 32.0625 -35.609375 "/></g></g></g><g fill="#ffffff" fill-opacity="1"><g transform="translate(347.096136, 100.236316)"><g><path d="M 60.484375 -61.265625 L 60.484375 0 L 46.890625 0 L 46.890625 -5.859375 C 44.160156 -3.128906 41.46875 -1.226562 38.8125 -0.15625 C 36.15625 0.90625 32.984375 1.4375 29.296875 1.4375 C 21.046875 1.4375 14.816406 -1.582031 10.609375 -7.625 C 8.921875 -10.207031 7.722656 -13.023438 7.015625 -16.078125 C 6.316406 -19.140625 5.96875 -23.253906 5.96875 -28.421875 L 5.96875 -61.265625 L 20.671875 -61.265625 L 20.671875 -31.296875 C 20.671875 -23.554688 21.664062 -18.429688 23.65625 -15.921875 C 25.570312 -13.335938 28.453125 -12.046875 32.296875 -12.046875 C 37.523438 -12.046875 41.242188 -13.925781 43.453125 -17.6875 C 45.003906 -20.050781 45.78125 -24.957031 45.78125 -32.40625 L 45.78125 -61.265625 Z M 60.484375 -61.265625 "/></g></g></g><g fill="#ffffff" fill-opacity="1"><g transform="translate(413.440484, 100.236316)"><g><path d="M 8.1875 0 L 8.1875 -47.875 L 1 -47.875 L 1 -61.265625 L 8.1875 -61.265625 L 8.1875 -81.71875 L 22.890625 -81.71875 L 22.890625 -61.265625 L 31.734375 -61.265625 L 31.734375 -47.875 L 22.890625 -47.875 L 22.890625 0 Z M 8.1875 0 "/></g></g></g><g fill="#ffffff" fill-opacity="1"><g transform="translate(446.612631, 100.236316)"><g><path d="M 5.96875 0 L 5.96875 -81.71875 L 20.671875 -81.71875 L 20.671875 -57.0625 C 24.953125 -60.894531 30.148438 -62.8125 36.265625 -62.8125 C 45.335938 -62.8125 51.972656 -59.566406 56.171875 -53.078125 C 58.898438 -48.953125 60.265625 -42.796875 60.265625 -34.609375 L 60.265625 0 L 45.5625 0 L 45.5625 -31.296875 C 45.5625 -37.710938 44.640625 -42.300781 42.796875 -45.0625 C 40.953125 -47.820312 37.890625 -49.203125 33.609375 -49.203125 C 28.597656 -49.203125 24.988281 -47.25 22.78125 -43.34375 C 21.375 -40.84375 20.671875 -36.753906 20.671875 -31.078125 L 20.671875 0 Z M 5.96875 0 "/></g></g></g><g fill="#ffffff" fill-opacity="1"><g transform="translate(512.956952, 100.236316)"><g><path d="M 35.71875 -62.703125 C 44.9375 -62.703125 52.695312 -59.566406 59 -53.296875 C 65.300781 -47.035156 68.453125 -39.332031 68.453125 -30.1875 C 68.453125 -21.5625 65.242188 -14.132812 58.828125 -7.90625 C 52.410156 -1.675781 44.742188 1.4375 35.828125 1.4375 C 26.835938 1.4375 19.171875 -1.691406 12.828125 -7.953125 C 6.484375 -14.222656 3.3125 -21.78125 3.3125 -30.625 C 3.3125 -39.40625 6.484375 -46.945312 12.828125 -53.25 C 19.171875 -59.550781 26.800781 -62.703125 35.71875 -62.703125 Z M 35.828125 -49.203125 C 31.035156 -49.203125 26.890625 -47.394531 23.390625 -43.78125 C 19.890625 -40.175781 18.140625 -35.863281 18.140625 -30.84375 C 18.140625 -25.613281 19.867188 -21.171875 23.328125 -17.515625 C 26.796875 -13.867188 31 -12.046875 35.9375 -12.046875 C 40.800781 -12.046875 44.960938 -13.851562 48.421875 -17.46875 C 51.890625 -21.082031 53.625 -25.46875 53.625 -30.625 C 53.625 -35.71875 51.890625 -40.085938 48.421875 -43.734375 C 44.960938 -47.378906 40.765625 -49.203125 35.828125 -49.203125 Z M 35.828125 -49.203125 "/></g></g></g><g fill="#ffffff" fill-opacity="1"><g transform="translate(583.724231, 100.236316)"><g><path d="M 5.96875 0 L 5.96875 -61.265625 L 19.46875 -61.265625 L 19.46875 -55.296875 C 21.382812 -58.085938 23.28125 -60.019531 25.15625 -61.09375 C 27.03125 -62.164062 29.554688 -62.703125 32.734375 -62.703125 L 33.84375 -62.703125 L 33.84375 -48.546875 C 25.0625 -48.328125 20.671875 -43.5 20.671875 -34.0625 L 20.671875 0 Z M 5.96875 0 "/></g></g></g></g></g><g transform="matrix(1, 0, 0, 1, 127, 0)"><g clip-path="url(#1e98107b41)"><g fill="#e6b712" fill-opacity="1"><g transform="translate(0.83231, 213.519361)"><g><path d="M 70.703125 -155.8125 C 82.484375 -155.8125 92.882812 -153.554688 101.90625 -149.046875 C 110.925781 -144.535156 117.945312 -138.28125 122.96875 -130.28125 C 127.988281 -122.28125 130.5 -112.96875 130.5 -102.34375 C 130.5 -95.507812 129.332031 -88.671875 127 -81.828125 C 124.675781 -74.992188 121.332031 -68.082031 116.96875 -61.09375 L 77.90625 0 L 39.28125 0 L 70.921875 -50.1875 C 68.304688 -49.75 65.6875 -49.53125 63.0625 -49.53125 C 53.164062 -49.53125 44.289062 -51.820312 36.4375 -56.40625 C 28.582031 -60.988281 22.398438 -67.242188 17.890625 -75.171875 C 13.378906 -83.097656 11.125 -92.082031 11.125 -102.125 C 11.125 -112.75 13.632812 -122.097656 18.65625 -130.171875 C 23.675781 -138.242188 30.660156 -144.535156 39.609375 -149.046875 C 48.554688 -153.554688 58.921875 -155.8125 70.703125 -155.8125 Z M 44.296875 -102.125 C 44.296875 -94.851562 46.804688 -88.816406 51.828125 -84.015625 C 56.847656 -79.210938 63.140625 -76.8125 70.703125 -76.8125 C 78.410156 -76.8125 84.773438 -79.210938 89.796875 -84.015625 C 94.816406 -88.816406 97.328125 -94.851562 97.328125 -102.125 C 97.328125 -109.539062 94.816406 -115.648438 89.796875 -120.453125 C 84.773438 -125.253906 78.410156 -127.65625 70.703125 -127.65625 C 63.140625 -127.65625 56.847656 -125.253906 51.828125 -120.453125 C 46.804688 -115.648438 44.296875 -109.539062 44.296875 -102.125 Z M 44.296875 -102.125 "/></g></g></g></g></g></svg>