<svg width="300" height="180" viewBox="0 0 300 180" xmlns="http://www.w3.org/2000/svg">
  <rect width="300" height="180" fill="white"/>
  <text x="18" y="28" font-family="Arial, Helvetica, sans-serif" font-size="18" fill="#111">ISBN 9790000000000</text>

  <g fill="#111">
    <rect x="20" y="42" width="3" height="92"/>
    <rect x="28" y="42" width="2" height="82"/>
    <rect x="35" y="42" width="5" height="92"/>
    <rect x="46" y="42" width="2" height="82"/>
    <rect x="54" y="42" width="7" height="92"/>
    <rect x="68" y="42" width="3" height="82"/>
    <rect x="78" y="42" width="2" height="92"/>
    <rect x="86" y="42" width="6" height="82"/>
    <rect x="101" y="42" width="3" height="92"/>
    <rect x="111" y="42" width="8" height="82"/>
    <rect x="126" y="42" width="2" height="92"/>
    <rect x="136" y="42" width="4" height="82"/>
    <rect x="148" y="42" width="7" height="92"/>
    <rect x="164" y="42" width="3" height="82"/>
    <rect x="174" y="42" width="5" height="92"/>
    <rect x="188" y="42" width="2" height="82"/>
    <rect x="196" y="42" width="6" height="92"/>

    <rect x="225" y="56" width="3" height="78"/>
    <rect x="233" y="56" width="6" height="70"/>
    <rect x="246" y="56" width="2" height="78"/>
    <rect x="254" y="56" width="5" height="70"/>
    <rect x="267" y="56" width="3" height="78"/>
  </g>

  <text x="18" y="158" font-family="Arial, Helvetica, sans-serif" font-size="18" fill="#111" letter-spacing="2">
    9 790000 000000     90000
  </text>
</svg>